<?xml version="1.0" encoding="UTF-8" standalone="no"?>
<!DOCTYPE svg PUBLIC "-//W3C//DTD SVG 1.1//EN" "http://www.w3.org/Graphics/SVG/1.1/DTD/svg11.dtd">
<svg version="1.1" xmlns="http://www.w3.org/2000/svg" xmlns:xlink="http://www.w3.org/1999/xlink" preserveAspectRatio="xMidYMid meet" viewBox="0 0 640 640" width="640" height="640"><defs><path d="M559 51.8C570.05 51.8 579 60.75 579 71.8C579 172.4 579 454.2 579 554.8C579 565.85 570.05 574.8 559 574.8C458.4 574.8 176.6 574.8 76 574.8C64.95 574.8 56 565.85 56 554.8C56 454.2 56 172.4 56 71.8C56 60.75 64.95 51.8 76 51.8C176.6 51.8 458.4 51.8 559 51.8Z" id="c4EtTIukag"></path><path d="M508 98.8C519.05 98.8 528 107.75 528 118.8C528 200.4 528 425.2 528 506.8C528 517.85 519.05 526.8 508 526.8C426.4 526.8 201.6 526.8 120 526.8C108.95 526.8 100 517.85 100 506.8C100 425.2 100 200.4 100 118.8C100 107.75 108.95 98.8 120 98.8C201.6 98.8 426.4 98.8 508 98.8Z" id="aNMCw6JaW"></path><path d="M252 185.3C252 221.45 222.65 250.8 186.5 250.8C150.35 250.8 121 221.45 121 185.3C121 149.15 150.35 119.8 186.5 119.8C222.65 119.8 252 149.15 252 185.3Z" id="b5oSNNfimO"></path><path d="M483 320C483 413.27 407.27 489 314 489C220.73 489 145 413.27 145 320C145 226.73 220.73 151 314 151C407.27 151 483 226.73 483 320Z" id="a7AB4UYzhd"></path><path d="M228 185.3C228 208.2 209.4 226.8 186.5 226.8C163.6 226.8 145 208.2 145 185.3C145 162.4 163.6 143.8 186.5 143.8C209.4 143.8 228 162.4 228 185.3Z" id="a9BezQsII"></path><path d="M444 320C444 391.75 385.75 450 314 450C242.25 450 184 391.75 184 320C184 248.25 242.25 190 314 190C385.75 190 444 248.25 444 320Z" id="a5SEN9TFY"></path></defs><g><g><g><use xlink:href="#c4EtTIukag" opacity="1" fill="#000000" fill-opacity="1"></use></g><g><use xlink:href="#aNMCw6JaW" opacity="1" fill="#ffffff" fill-opacity="1"></use></g><g><use xlink:href="#b5oSNNfimO" opacity="1" fill="#230909" fill-opacity="1"></use></g><g><use xlink:href="#a7AB4UYzhd" opacity="1" fill="#230909" fill-opacity="1"></use></g><g><use xlink:href="#a9BezQsII" opacity="1" fill="#ffffff" fill-opacity="1"></use></g><g><use xlink:href="#a5SEN9TFY" opacity="1" fill="#ffffff" fill-opacity="1"></use></g></g></g></svg>